<svg width="136" height="136" viewBox="0 0 136 136" fill="none" xmlns="http://www.w3.org/2000/svg">
<circle cx="67.9996" cy="67.9997" r="57.7857" stroke="#1A1B1C"/>
<circle cx="68" cy="68" r="50" fill="#FCFCFC" stroke="#1A1B1C" stroke-width="2"/>
<path d="M78.3214 68C85.3631 68 91.0714 62.2916 91.0714 55.25C91.0714 48.2084 85.3631 42.5 78.3214 42.5C71.2798 42.5 65.5714 48.2084 65.5714 55.25C65.5714 62.2916 71.2798 68 78.3214 68Z" fill="#1A1B1C"/>
<path fill-rule="evenodd" clip-rule="evenodd" d="M17 68C17 71.9604 17.4514 75.8154 18.3056 79.5163C23.5265 102.136 43.7939 119 68 119C94.8673 119 116.882 98.2244 118.856 71.862C118.951 70.5872 119 69.2993 119 68C119 39.8335 96.1665 17 68 17C39.8335 17 17 39.8335 17 68ZM35.3365 67.7257L19.3825 78.7708C18.6175 75.3024 18.2143 71.6983 18.2143 68C18.2143 40.5041 40.5041 18.2143 68 18.2143C95.4959 18.2143 117.786 40.5041 117.786 68C117.786 69.5412 117.716 71.0661 117.579 72.5716L82.9447 91.8127C80.4324 93.2084 77.3343 92.9968 75.0351 91.2724L43.855 67.8874C41.3462 66.0058 37.9149 65.9406 35.3365 67.7257Z" fill="#1A1B1C"/>
</svg>
